<svg id="Capa_1" enable-background="new 0 0 512 512" height="512" viewBox="0 0 512 512" width="512" xmlns="http://www.w3.org/2000/svg"><g><path d="m374.706 274.881-58.69 58.69c-5.663 5.663-14.844 5.663-20.506 0l-.707-.707c-5.663-5.663-5.663-14.844 0-20.506l79.903-79.903c8.787-8.787 8.787-23.033 0-31.82s-23.033-8.787-31.82 0l-79.903 79.903c-5.663 5.663-14.844 5.663-20.506 0l-.707-.707c-5.663-5.663-5.663-14.843 0-20.506l101.116-101.116c8.787-8.787 8.787-23.033 0-31.82s-23.033-8.787-31.82 0l-101.116 101.116c-5.663 5.663-14.844 5.663-20.506 0s-5.663-14.844 0-20.506l79.903-79.903c8.787-8.787 8.787-23.033 0-31.82s-23.033-8.787-31.82 0c-17.731 17.732-161.769 161.769-167.76 167.76-4.328-35.356-9.773-88.882-9.776-88.917v.001c0-8.432-3.532-16.865-10.598-22.887-18.809-16.03-48.771-3.356-49.393 22.149 8.778 149.228-17.396 229.12 51.204 297.721 46.863 46.863 133.449 57.47 180.312 10.607l175.009-175.009c8.787-8.787 8.787-23.033 0-31.82s-23.033-8.787-31.819 0z"/><path d="m29.98 114.14c12.5 0 24.64 3.89 34.71 11.02-2.37-21.89-4.19-39.73-4.19-39.73 0-.01 0-.01 0-.02-.01-8.42-3.54-16.84-10.6-22.86-18.813-16.042-48.774-3.352-49.39 22.15.74 12.59 1.23 24.68 1.55 36.31 8.54-4.48 18.13-6.87 27.92-6.87z"/><path d="m92.62 197.76 123.69-123.7c8.97-8.96 20.6-14.28 33.12-15.22l20.43-20.43c8.78-8.79 8.78-23.03 0-31.82-8.82-8.8-23.048-8.772-31.82 0-14.29 14.28-110.47 110.47-150.51 150.51 1.45 4.91 2.28 10.02 2.43 15.24.35 3.34 1.34 13 2.66 25.42z"/><path d="m303.5 95.31c6.03-3.02 12.61-4.85 19.46-5.35l20.44-20.44c8.78-8.78 8.78-23.03 0-31.82-8.78-8.76-23.034-8.786-31.82 0l-29.48 29.48c9.754 6.362 17.64 16.203 21.4 28.13z"/><path d="m497 92h-30c-8.284 0-15 6.716-15 15s6.716 15 15 15h30c8.284 0 15-6.716 15-15s-6.716-15-15-15z"/><path d="m476.606 4.393c-5.857-5.858-15.355-5.858-21.213 0l-30 30c-5.858 5.858-5.858 15.355 0 21.213s15.356 5.858 21.213 0l30-30c5.859-5.857 5.859-15.355 0-21.213z"/></g></svg>